HIERARCHY
ROOT hip
{
  OFFSET 0 0 0
  CHANNELS 6 Xposition Yposition Zposition Zrotation Yrotation Xrotation
  JOINT abdomen
  {
    OFFSET 0 20.6881 -0.73152
    CHANNELS 3 Zrotation Xrotation Yrotation
    JOINT chest
    {
      OFFSET 0 11.7043 -0.48768
      CHANNELS 3 Zrotation Xrotation Yrotation
      JOINT neck
      {
        OFFSET 0 22.1894 -2.19456
        CHANNELS 3 Zrotation Xrotation Yrotation
        JOINT head
        {
          OFFSET -0.24384 7.07133 1.2192
          CHANNELS 3 Zrotation Xrotation Yrotation
          JOINT leftEye
          {
            OFFSET 4.14528 8.04674 8.04672
            CHANNELS 3 Zrotation Xrotation Yrotation
            End Site
            {
              OFFSET 1 0 0
            }
          }
          JOINT rightEye
          {
            OFFSET -3.6576 8.04674 8.04672
            CHANNELS 3 Zrotation Xrotation Yrotation
            End Site
            {
              OFFSET 1 0 0
            }
          }
        }
      }
      JOINT rCollar
      {
        OFFSET -2.68224 19.2634 -4.8768
        CHANNELS 3 Zrotation Xrotation Yrotation
        JOINT rShldr
        {
          OFFSET -8.77824 -1.95073 1.46304
          CHANNELS 3 Zrotation Xrotation Yrotation
          JOINT rForeArm
          {
            OFFSET -28.1742 -1.7115 0.48768
            CHANNELS 3 Zrotation Xrotation Yrotation
            JOINT rHand
            {
              OFFSET -22.5879 0.773209 7.07136
              CHANNELS 3 Zrotation Xrotation Yrotation
              JOINT rThumb1
              {
                OFFSET -1.2192 -0.487915 3.41376
                CHANNELS 3 Zrotation Xrotation Yrotation
                JOINT rThumb2
                {
                  OFFSET -3.37035 -0.52449 3.41376
                  CHANNELS 3 Zrotation Xrotation Yrotation
                  End Site
                  {
                    OFFSET -1.78271 -1.18214 1.43049
                  }
                }
              }
              JOINT rIndex1
              {
                OFFSET -7.75947 0.938293 5.60832
                CHANNELS 3 Zrotation Xrotation Yrotation
                JOINT rIndex2
                {
                  OFFSET -2.54057 -0.884171 1.56538
                  CHANNELS 3 Zrotation Xrotation Yrotation
                  End Site
                  {
                    OFFSET -1.62519 -0.234802 1.16502
                  }
                }
              }
              JOINT rMid1
              {
                OFFSET -8.24714 1.18213 3.41376
                CHANNELS 3 Zrotation Xrotation Yrotation
                JOINT rMid2
                {
                  OFFSET -3.10165 -0.590103 1.0647
                  CHANNELS 3 Zrotation Xrotation Yrotation
                  End Site
                  {
                    OFFSET -2.48547 -0.328903 0.83742
                  }
                }
              }
              JOINT rRing1
              {
                OFFSET -8.82822 0.546677 1.51678
                CHANNELS 3 Zrotation Xrotation Yrotation
                JOINT rRing2
                {
                  OFFSET -2.60934 -0.819778 -0.0198488
                  CHANNELS 3 Zrotation Xrotation Yrotation
                  End Site
                  {
                    OFFSET -2.33842 -0.294052 0.168128
                  }
                }
              }
              JOINT rPinky1
              {
                OFFSET -8.27202 -0.0477905 -0.4584
                CHANNELS 3 Zrotation Xrotation Yrotation
                JOINT rPinky2
                {
                  OFFSET -1.82734 -0.647385 -0.700984
                  CHANNELS 3 Zrotation Xrotation Yrotation
                  End Site
                  {
                    OFFSET -1.69225 -0.51767 -0.607171
                  }
                }
              }
            }
          }
        }
      }
      JOINT lCollar
      {
        OFFSET 2.68224 19.2634 -4.8768
        CHANNELS 3 Zrotation Xrotation Yrotation
        JOINT lShldr
        {
          OFFSET 8.77824 -1.95073 1.46304
          CHANNELS 3 Zrotation Xrotation Yrotation
          JOINT lForeArm
          {
            OFFSET 28.1742 -1.7115 0.48768
            CHANNELS 3 Zrotation Xrotation Yrotation
            JOINT lHand
            {
              OFFSET 22.5879 0.773209 7.07136
              CHANNELS 3 Zrotation Xrotation Yrotation
              JOINT lThumb1
              {
                OFFSET 1.2192 -0.487915 3.41376
                CHANNELS 3 Zrotation Xrotation Yrotation
                JOINT lThumb2
                {
                  OFFSET 3.37035 -0.52449 3.41376
                  CHANNELS 3 Zrotation Xrotation Yrotation
                  End Site
                  {
                    OFFSET 1.78271 -1.18214 1.43049
                  }
                }
              }
              JOINT lIndex1
              {
                OFFSET 7.75947 0.938293 5.60832
                CHANNELS 3 Zrotation Xrotation Yrotation
                JOINT lIndex2
                {
                  OFFSET 2.54057 -0.884171 1.56538
                  CHANNELS 3 Zrotation Xrotation Yrotation
                  End Site
                  {
                    OFFSET 1.62519 -0.234802 1.16502
                  }
                }
              }
              JOINT lMid1
              {
                OFFSET 8.24714 1.18213 3.41376
                CHANNELS 3 Zrotation Xrotation Yrotation
                JOINT lMid2
                {
                  OFFSET 3.10165 -0.590103 1.0647
                  CHANNELS 3 Zrotation Xrotation Yrotation
                  End Site
                  {
                    OFFSET 2.48547 -0.328903 0.83742
                  }
                }
              }
              JOINT lRing1
              {
                OFFSET 8.82822 0.546677 1.51678
                CHANNELS 3 Zrotation Xrotation Yrotation
                JOINT lRing2
                {
                  OFFSET 2.60934 -0.819778 -0.0198488
                  CHANNELS 3 Zrotation Xrotation Yrotation
                  End Site
                  {
                    OFFSET 2.33842 -0.294052 0.168128
                  }
                }
              }
              JOINT lPinky1
              {
                OFFSET 8.27202 -0.0477905 -0.4584
                CHANNELS 3 Zrotation Xrotation Yrotation
                JOINT lPinky2
                {
                  OFFSET 1.82734 -0.647385 -0.700984
                  CHANNELS 3 Zrotation Xrotation Yrotation
                  End Site
                  {
                    OFFSET 1.69225 -0.51767 -0.607171
                  }
                }
              }
            }
          }
        }
      }
    }
  }
  JOINT rButtock
  {
    OFFSET -8.77824 4.35084 1.2192
    CHANNELS 3 Zrotation Xrotation Yrotation
    JOINT rThigh
    {
      OFFSET 0 -1.70687 -2.19456
      CHANNELS 3 Zrotation Xrotation Yrotation
      JOINT rShin
      {
        OFFSET 0 -36.8199 0.73152
        CHANNELS 3 Zrotation Xrotation Yrotation
        JOINT rFoot
        {
          OFFSET 0.73152 -45.1104 -5.12064
          CHANNELS 3 Zrotation Xrotation Yrotation
          End Site
          {
            OFFSET -1.1221 -3.69964 12.103
          }
        }
      }
    }
  }
  JOINT lButtock
  {
    OFFSET 8.77824 4.35084 1.2192
    CHANNELS 3 Zrotation Xrotation Yrotation
    JOINT lThigh
    {
      OFFSET 0 -1.70687 -2.19456
      CHANNELS 3 Zrotation Xrotation Yrotation
      JOINT lShin
      {
        OFFSET 0 -36.8199 0.73152
        CHANNELS 3 Zrotation Xrotation Yrotation
        JOINT lFoot
        {
          OFFSET -0.73152 -45.1104 -5.12064
          CHANNELS 3 Zrotation Xrotation Yrotation
          End Site
          {
            OFFSET 1.1221 -3.69964 12.103
          }
        }
      }
    }
  }
}
MOTION
Frames:	6
Frame Time:	0.00833333
-38.6946 86.0094 32.9497 -177.135 3.3612 -170.552 1.26797 1.40402 7.03268 -0.645496 -5.14088 2.03504 13.4745 -5.9242 14.0798 -17.0745 14.9629 22.7812 -0.0 0.0 0.0 -0.0 0.0 0.0 2.68696e-15 3.32973e-14 -1.54493e-14 67.416 28.1844 -7.47516 -28.2471 -32.3895 71.0918 -1.71568 -34.4439 -5.53122 9.96948e-10 -1.59062e-09 1.49786e-09 1.68037e-09 -2.49925e-09 2.61236e-09 9.96951e-10 -1.5906e-09 1.49786e-09 7.73091 5.47488 0.417314 9.96945e-10 -1.59062e-09 1.49786e-09 2.90554 0.965183 0.102902 9.96956e-10 -1.5906e-09 1.49786e-09 10.2786 0.731801 0.0259123 9.96948e-10 -1.59062e-09 1.49788e-09 2.22167 -0.733487 -0.20892 2.63382e-15 3.3296e-14 -1.57816e-14 -52.0676 42.0238 -18.2108 28.0513 -30.9189 -68.7067 3.88036 -47.4637 8.81157 -9.34337e-10 -1.46364e-08 -9.62448e-10 -1.57161e-09 -2.52662e-08 -1.6934e-09 -9.34343e-10 -1.46364e-08 -9.6244e-10 -7.73091 5.47488 -0.417314 -9.34339e-10 -1.46364e-08 -9.62447e-10 -2.90554 0.965183 -0.102902 -9.34346e-10 -1.46364e-08 -9.62445e-10 -10.2786 0.731801 -0.0259123 -9.3433e-10 -1.46364e-08 -9.62453e-10 -2.22167 -0.733487 0.20892 -2.03217e-16 0.0 -3.88251e-19 -0.763962 -2.82375 -7.44325 0.0650789 11.2461 0.66536 -20.3578 -14.2986 -50.5713 2.03217e-16 0.0 3.88251e-19 7.42121 -26.726 2.67326 0.11436 21.0057 -0.427222 3.67352 -3.51874 19.2079
-39.5027 86.1203 32.0882 -177.199 2.3753 -170.867 0.604919 1.33799 7.28524 -0.68341 -4.97812 2.10115 13.014 -6.14902 13.56 -16.7884 15.5442 22.089 -0.0 0.0 0.0 -0.0 0.0 0.0 -1.22525e-14 -1.20214e-13 -4.28785e-14 67.6677 28.3086 -7.32441 -28.2178 -32.1382 70.689 -1.73239 -34.5856 -5.56069 4.97764e-10 -2.1256e-09 1.4836e-10 8.54698e-10 -3.65838e-09 2.72104e-10 4.97766e-10 -2.12557e-09 1.48349e-10 7.73091 5.47488 0.417314 4.97761e-10 -2.1256e-09 1.48357e-10 2.90554 0.965183 0.102902 4.97771e-10 -2.12559e-09 1.48363e-10 10.2786 0.731801 0.0259123 4.97765e-10 -2.1256e-09 1.48376e-10 2.22167 -0.733487 -0.20892 -1.2325e-14 -1.20216e-13 -4.31584e-14 -51.5994 42.1563 -18.6068 28.0025 -30.6239 -68.2406 3.84661 -47.3171 8.76586 9.22308e-11 1.71072e-09 -1.16712e-10 1.64019e-10 2.74571e-09 -1.99394e-10 9.22233e-11 1.71072e-09 -1.16708e-10 -7.73091 5.47488 -0.417314 9.22294e-11 1.71071e-09 -1.16712e-10 -2.90554 0.965183 -0.102902 9.22235e-11 1.71071e-09 -1.16712e-10 -10.2786 0.731801 -0.0259123 9.22391e-11 1.71072e-09 -1.16722e-10 -2.22167 -0.733487 0.20892 -2.03217e-16 0.0 -3.88251e-19 -2.02063 -4.00412 -7.69671 0.0529268 14.5447 0.639957 -14.8102 -8.9129 -49.2454 2.03217e-16 0.0 3.88251e-19 6.46554 -25.6191 3.25631 0.107397 19.9957 -0.378035 3.27096 -3.46075 17.3776
-40.3912 86.2708 31.2629 -177.391 1.4353 -171.201 -0.0155148 1.39991 7.50869 -0.753866 -4.86728 2.15216 12.6011 -6.3843 13.1069 -16.5284 16.2112 21.4245 -0.0 0.0 0.0 -0.0 0.0 0.0 -2.04301e-14 -2.25818e-13 -5.39203e-14 67.727 28.633 -7.00656 -28.1828 -31.8438 70.2022 -1.7443 -34.6857 -5.58159 1.22948e-11 -6.86316e-10 -9.47837e-10 4.61948e-11 -1.35384e-09 -1.63136e-09 1.22976e-11 -6.86286e-10 -9.47853e-10 7.73091 5.47488 0.417314 1.22922e-11 -6.86312e-10 -9.4784e-10 2.90554 0.965183 0.102902 1.23015e-11 -6.86312e-10 -9.47835e-10 10.2786 0.731801 0.0259123 1.22966e-11 -6.86314e-10 -9.47821e-10 2.22167 -0.733487 -0.20892 -2.05209e-14 -2.2582e-13 -5.41688e-14 -51.1965 42.1903 -18.9527 27.9533 -30.3408 -67.7928 3.83975 -47.288 8.75668 9.15914e-10 1.21424e-08 5.8658e-10 1.55554e-09 2.05394e-08 1.0422e-09 9.15906e-10 1.21424e-08 5.86583e-10 -7.73091 5.47488 -0.417314 9.15913e-10 1.21424e-08 5.8658e-10 -2.90554 0.965183 -0.102902 9.15908e-10 1.21424e-08 5.86579e-10 -10.2786 0.731801 -0.0259123 9.15923e-10 1.21424e-08 5.86567e-10 -2.22167 -0.733487 0.20892 -2.03217e-16 0.0 -3.88251e-19 -3.24759 -5.15453 -8.26443 0.0247481 17.8038 0.607918 -10.2618 -4.88187 -46.6438 2.03217e-16 0.0 3.88251e-19 5.42222 -24.5345 3.35066 0.100261 19.1594 -0.332871 3.01554 -3.61509 16.0138
-41.2877 86.412 30.4709 -177.742 0.5081 -171.612 -0.664003 1.65624 7.73626 -0.893679 -4.84044 2.19153 12.2547 -6.64201 12.7531 -16.3141 17.0601 20.8014 -0.0 0.0 0.0 -0.0 0.0 0.0 -2.16601e-14 -2.66967e-13 -2.69334e-14 67.5324 29.2535 -6.44809 -28.1345 -31.4622 69.5609 -1.74669 -34.7053 -5.58573 -5.7878e-10 4.82823e-09 -1.83078e-09 -9.49866e-10 8.05119e-09 -3.17046e-09 -5.78778e-10 4.82826e-09 -1.83079e-09 7.73091 5.47488 0.417314 -5.78783e-10 4.82824e-09 -1.83078e-09 2.90554 0.965183 0.102902 -5.78772e-10 4.82823e-09 -1.83077e-09 10.2786 0.731801 0.0259123 -5.78779e-10 4.82823e-09 -1.83076e-09 2.22167 -0.733487 -0.20892 -2.17731e-14 -2.66968e-13 -2.71861e-14 -50.8527 42.1 -19.2661 27.9014 -30.0501 -67.3206 3.87461 -47.4421 8.80423 1.4697e-09 1.40402e-08 1.13654e-09 2.48778e-09 2.35629e-08 2.01039e-09 1.46969e-09 1.40402e-08 1.13655e-09 -7.73091 5.47488 -0.417314 1.4697e-09 1.40402e-08 1.13654e-09 -2.90554 0.965183 -0.102902 1.4697e-09 1.40402e-08 1.13654e-09 -10.2786 0.731801 -0.0259123 1.46971e-09 1.40402e-08 1.13653e-09 -2.22167 -0.733487 0.20892 -2.03217e-16 0.0 -3.88251e-19 -4.62477 -6.24248 -9.35918 -0.0292498 21.1026 0.556847 -6.96891 -2.38045 -41.205 2.03217e-16 0.0 3.88251e-19 4.1942 -23.4058 2.76467 0.0905319 18.4869 -0.28932 2.95987 -4.09464 15.3454
-42.1688 86.5013 29.7211 -178.09 -0.5738 -172.028 -1.32277 2.04526 7.97531 -1.10318 -4.85481 2.22407 11.9494 -6.89284 12.4405 -16.1548 18.0424 20.2538 -0.0 0.0 0.0 -0.0 0.0 0.0 -2.16651e-14 -2.77604e-13 1.90616e-14 67.1195 30.11 -5.67249 -28.0682 -31.0039 68.8107 -1.74416 -34.6836 -5.58122 -1.28969e-09 1.30517e-08 -2.71173e-09 -2.15252e-09 2.21552e-08 -4.70982e-09 -1.28968e-09 1.30517e-08 -2.71175e-09 7.73091 5.47488 0.417314 -1.28969e-09 1.30517e-08 -2.71173e-09 2.90554 0.965183 0.102902 -1.28968e-09 1.30517e-08 -2.71173e-09 10.2786 0.731801 0.0259123 -1.28969e-09 1.30517e-08 -2.71172e-09 2.22167 -0.733487 -0.20892 -2.18049e-14 -2.77601e-13 1.87852e-14 -50.5223 41.9171 -19.5665 27.8421 -29.7351 -66.8109 3.94489 -47.7474 8.89955 1.96894e-09 1.16437e-08 1.67369e-09 3.32627e-09 1.91385e-08 2.95503e-09 1.96894e-09 1.16437e-08 1.6737e-09 -7.73091 5.47488 -0.417314 1.96894e-09 1.16437e-08 1.67369e-09 -2.90554 0.965183 -0.102902 1.96894e-09 1.16437e-08 1.67369e-09 -10.2786 0.731801 -0.0259123 1.96895e-09 1.16437e-08 1.67368e-09 -2.22167 -0.733487 0.20892 -2.03217e-16 0.0 -3.88251e-19 -6.17923 -7.38276 -10.8069 -0.0967481 24.6183 0.489033 -4.50816 -0.471608 -33.5031 2.03217e-16 0.0 3.88251e-19 2.87653 -22.1828 1.74145 0.0783989 17.8959 -0.246517 3.06639 -4.86249 15.1894
-42.9544 86.524 29.0032 -178.172 -1.8287 -172.493 -1.85071 2.46312 8.14621 -1.29863 -4.87031 2.23843 11.6638 -7.13178 12.1396 -15.9933 18.9809 19.727 -0.0 0.0 0.0 -0.0 0.0 0.0 -1.65713e-14 -2.69505e-13 4.96368e-14 66.56 31.0279 -4.80964 -27.992 -30.5453 68.09 -1.74359 -34.6788 -5.58022 -1.84128e-09 2.02816e-08 -3.34215e-09 -3.08685e-09 3.45764e-08 -5.81302e-09 -1.84128e-09 2.02816e-08 -3.34216e-09 7.73091 5.47488 0.417314 -1.84128e-09 2.02816e-08 -3.34215e-09 2.90554 0.965183 0.102902 -1.84127e-09 2.02816e-08 -3.34214e-09 10.2786 0.731801 0.0259123 -1.84128e-09 2.02816e-08 -3.34213e-09 2.22167 -0.733487 -0.20892 -1.67306e-14 -2.695e-13 4.93382e-14 -50.2624 41.6785 -19.7948 27.7857 -29.454 -66.3664 4.02328 -48.0802 9.00508 2.4029e-09 7.66469e-09 2.11713e-09 4.05598e-09 1.20165e-08 3.73595e-09 2.40289e-09 7.66468e-09 2.11714e-09 -7.73091 5.47488 -0.417314 2.4029e-09 7.66468e-09 2.11713e-09 -2.90554 0.965183 -0.102902 2.4029e-09 7.66468e-09 2.11713e-09 -10.2786 0.731801 -0.0259123 2.40291e-09 7.66468e-09 2.11712e-09 -2.22167 -0.733487 0.20892 -2.03217e-16 0.0 -3.88251e-19 -7.55752 -8.54377 -12.2696 -0.158776 28.0396 0.426969 -2.91538 0.958163 -25.5707 2.03217e-16 0.0 3.88251e-19 1.729 -21.0429 0.575136 0.0670493 17.4701 -0.209594 3.22555 -5.70475 15.1715
